<svg id="yulansvg" xmlns="http://www.w3.org/2000/svg" data-v-056d9bd8="" version="1.0" width="166" height="75" viewBox="0 0 166.000000 75.000000"
    preserveAspectRatio="xMidYMid meet" color-interpolation-filters="sRGB" class="el-tooltip">
    <svg width="75" height="75" x="0" y="0">
        <svg xmlns="http://www.w3.org/2000/svg" viewBox="0 0 497.8 424.1">
            <path d="M497.5 64.7c-.8 22.6-4.2 44.9-7.7 67.2-.9 5.6-1.7 11.3-2.6 16.9-2.9 19-5.7 37.9-9.1 56.5-1.1 6.1-2.3 12.1-3.6 18-3.5 16.6-7.8 32.8-13.2 48.4-14.6 41.9-37.6 79.4-78.7 107.7-26 18-55.9 30.3-86.8 36.8-43.5 9-84.1 11-128.3 1.9-42.4-8.8-74.2-23.9-105.3-54.6-23.1-22.8-36-55.6-44.7-86.8-1.3-4.6-2.5-9.2-3.6-13.8-3.3-13.5-6-26.9-8.1-40.4-.9-5.6-1.7-11.2-2.3-16.7-2.3-19-3.5-38-3.5-57.1C0 112.8 4 76.9 12.1 41c4.6-20.4 24.4-42.7 46-25.4 6.4 5.1 11.4 11.9 14.3 19.5.4.9.7 1.8 1.5 2.3.7.4 1.5.4 2.3.4 59.7.3 119.3-3.2 179-3.8 30.5-.3 62.9-2.2 93.2-.2 28.3 1.8 56.1-.6 84.7-.1.1-12.5 7.6-24.6 18.7-30.3 15.3-7.9 30.1-1.2 38.6 13.6 8.3 14.1 7.7 31.9 7.1 47.7z"
                fill="#fabc63"></path>
            <path d="M237.1 232.5c7.3-.3 14.8-2.9 19.6-8.4 11.7-13.7 4.4-37.6-13.6-41.1-15.4-3-31.1 6.8-32 22.7-.9 15.1 10.7 27.3 26 26.8z"
                fill="#221e20"></path>
            <path d="M142.2 36.8c.5 12.8 4.1 25.8 9.8 34.4 2 3 4.2 5.8 6.9 8.1 4.8 4.2 11 6.7 17.4 7.2 4.3.3 8.8-.4 12.4-2.9 7.8-5.3 8.4-16.3 8.2-25.8-.1-6.5 1.1-14.6 1.7-22.7-18.8.6-37.6 1.2-56.4 1.7zM212.2 34.8c1.5 11.8 4.7 24 6.8 31.5 1.8 6.6 4.2 13.3 9 18.1 4.8 4.8 12.6 7.3 18.7 4.1 4.9-2.6 7.4-8 9.2-13.2 3.6-10.7 6.2-26.6 5.1-41.3-1.9 0-3.8.1-5.6.1-14.5 0-28.9.3-43.2.7zM290.3 33.3c.6 12.8 5.6 27.4 9.1 35.6 2.8 6.5 6.4 13 12.2 17.1 5.8 4.1 14.1 5.3 19.9 1.3 5.4-3.7 7.5-10.6 8.6-17.1 1.8-10.2 2.1-24.5-1.1-36.9-16-.6-32.4-.4-48.7 0z"
                fill="#000000"></path>
            <path d="M285.6 340.4c-.4-1.3-2.1-2-3.7-1.7-7.3 1.5-14 .3-20.1-3.6-18.1-11.6-16.9-31.4-17.6-47.8-.5-11.8-1-23.5-1.6-35.3-.8-17.5-1.5-35-2.3-52.5-.1-1.3-1.5-2.2-3.2-2.3-1.7 0-3 1.1-2.9 2.4.6 13.8 1.2 27.6 1.8 41.5.5 12.5 1.1 24.9 1.6 37.4.4 9-.6 18.8.5 27.7-1.7 15.2-18.3 24.4-35.7 26.9-1.7.2-2.8 1.5-2.4 2.8.3 1.3 1.9 2.1 3.6 1.9 18.1-2.6 31.4-10.4 37.3-21 3.2 8.4 9 16.8 16.9 21.9 5.5 3.5 11.6 5.3 18.1 5.3 2.5 0 5-.3 7.5-.8 1.6-.2 2.6-1.5 2.2-2.8z"
                fill="#221e20"></path>
            <path d="M197.2 212c.4-5.6-5.7-7.8-9.9-4.3-4.2 3.4-1.2 8.9 3.2 9.5 3.2.4 6.5-2 6.7-5.2zM174.3 252.2c.4-5.6-5.7-7.8-9.9-4.3-4.2 3.4-1.2 8.9 3.2 9.5 3.2.4 6.5-2 6.7-5.2zM197.2 289.9c.4-5.6-5.7-7.8-9.9-4.3-4.2 3.4-1.2 8.9 3.2 9.5 3.2.4 6.5-2.1 6.7-5.2zM279.4 211c-.4-5.6 5.7-7.8 9.9-4.3 4.2 3.4 1.2 8.9-3.2 9.5-3.1.4-6.4-2.1-6.7-5.2zM302.4 251.2c-.4-5.6 5.7-7.8 9.9-4.3 4.2 3.4 1.2 8.9-3.2 9.5-3.2.4-6.5-2.1-6.7-5.2zM279.4 288.8c-.4-5.6 5.7-7.8 9.9-4.3 4.2 3.4 1.2 8.9-3.2 9.5-3.1.5-6.4-2-6.7-5.2z"
                fill="#c65f3d"></path>
            <path d="M98.2 222.8c-4.1 15.6-37.6 15.1-49.6 11.7-19.1-5.4-22.5-26-3.7-34.6 16.3-7.4 48.3-7.6 53.3 15.5.6 2.8.5 5.3 0 7.4zM381 221.7c4.1 15.6 37.6 15.1 49.6 11.7 19.1-5.4 22.5-26 3.7-34.6-16.3-7.4-48.3-7.6-53.3 15.5-.6 2.9-.6 5.3 0 7.4z"
                fill="#ef804e"></path>
            <path d="M288.1 212.8c-1.3 0-2.5-.9-2.9-2.2-.5-1.6.5-3.3 2.1-3.8l6.9-2c6.1-1.8 12.5-3.6 18.6-5.6 11.9-4 24.2-6.3 36-8.5 2.8-.5 5.7-1.1 8.5-1.6 19.2-3.7 34-5.9 48.2-7 1.6-.1 3.2 1.1 3.3 2.8.1 1.7-1.1 3.1-2.8 3.3-13.9 1.1-28.6 3.2-47.5 6.9-2.8.6-5.7 1.1-8.5 1.6-11.7 2.2-23.8 4.4-35.2 8.3-6.2 2.1-12.7 3.9-18.8 5.7l-6.8 2c-.5 0-.8.1-1.1.1zM417.9 258.2h-.4c-12.5-1.8-25.4-2.2-37.8-2.6-5.3-.2-10.6-.3-16-.6-4.4-.2-8.9-.5-13.3-.8-13.9-.9-28.2-1.7-42.3-.8-1.7.2-3.1-1.2-3.3-2.8-.1-1.7 1.2-3.1 2.8-3.3 14.4-1 29-.1 43 .8 4.4.3 8.8.5 13.2.8 5.3.3 10.6.4 15.9.6 12.6.4 25.6.7 38.5 2.6 1.7.3 2.8 1.8 2.6 3.5-.1 1.5-1.4 2.6-2.9 2.6zM354.7 325.5c-.4 0-.9-.1-1.3-.3-23.5-11.3-47.1-22.9-70.2-34.6-1.5-.8-2.1-2.6-1.4-4.1.8-1.5 2.6-2.1 4.1-1.4 23.1 11.6 46.7 23.2 70.1 34.5 1.5.7 2.2 2.6 1.4 4.1-.5 1.2-1.6 1.8-2.7 1.8zM190.2 214.1c-.4 0-.7-.1-1.1-.2l-24.5-9.1c-12.9-4.8-26.6-7.6-39.9-10.4-10.9-2.3-22.1-4.6-33-8a3.037 3.037 0 0 1 1.8-5.8c10.6 3.3 21.7 5.6 32.4 7.8 13.5 2.8 27.4 5.7 40.7 10.6l24.5 9.1c1.6.6 2.4 2.3 1.8 3.9-.3 1.3-1.4 2.1-2.7 2.1zM62.8 261.4c-1.4 0-2.6-.9-3-2.3-.4-1.6.6-3.3 2.2-3.7 16.8-4.1 31-7.3 48.3-8.7 18.9-1.6 38-1.1 56.7 1.3 1.7.2 2.9 1.7 2.6 3.4-.2 1.7-1.7 2.9-3.4 2.6-18.3-2.4-37-2.8-55.4-1.2-16.8 1.4-30.8 4.6-47.4 8.6h-.6zM108.1 314.6c-1.2 0-2.4-.7-2.8-2-.6-1.6.2-3.3 1.7-3.9 17.3-6.7 35.4-10.9 53-15 9.5-2.2 19.3-4.5 28.8-7.1 1.6-.5 3.3.5 3.8 2.1s-.5 3.3-2.1 3.8c-9.6 2.7-19.5 5-29 7.2-17.4 4-35.3 8.2-52.2 14.7-.5.1-.9.2-1.2.2z"
                fill="#221e20"></path>
            <path d="M61.9 227.5c-.5-2.9-6.8-23.8-10.9-19.6-3.4 3.5-.1 10.9 1.4 14.4s4.1 7.2 7.9 7.6c.4 0 .8 0 1.1-.2.6-.3.6-1.3.5-2.2zM75.7 224c-.3-2.9-4.6-23.8-7.4-19.6-2.3 3.5-.1 10.9.9 14.4s2.8 7.2 5.3 7.6c.2 0 .5 0 .7-.2.5-.3.5-1.4.5-2.2zM411.9 224.7c.7-5.7-4.7-20.4-11.6-19.9-2.9.2 10.1 31.3 11.6 19.9zM427.7 225.8c.2-5.9-6.2-16.2-8.8-21.6-.5-1.1-1.4-2.4-2.6-2.2-1.3.2-1.6 2-1.4 3.3.4 3.6 1.5 7.3 2.7 10.7 1.6 4.5 3.7 9.4 8.2 11.2.4.2.9.3 1.3.1.4-.2.6-.9.6-1.5z"
                fill="#f39b56"></path>
            <path d="M399.8 140c.6-1.6 1.3-3.3 1.9-4.9 1.7-4.3-4.8-7.9-7.8-4.5-6.3 7.3-6.3 17.3-.3 24.7 1.6 2 4.9 1.6 6.6 0 6.9-6.8 8.3-17.8 3-26.1-1.9-2.9-6.2-3.1-8 0-2.6 4.5-6.3 13.6-.8 17.5 5.6 3.9 11.2-3.5 7.1-8.4-3.8-4.6-10.4 2-6.6 6.6.1.1.2.3.4.4l-1.2-4.5c.2-.3.3-.7.5-1 1.1-.5 2.2-.9 3.3-1.4h-.7c1.1.5 2.2.9 3.3 1.4.9.9.6-1 1-2.1.4-1.4 1-2.6 1.7-3.8h-8c3.1 4.8 2.6 10.8-1.6 14.8h6.6c-2.7-3.3-2.4-8.4.3-11.6l-7.8-4.5c-.6 1.6-1.3 3.3-1.9 4.9-2.1 5.6 6.9 8 9 2.5zM96.8 133.1c-.9 5.6-.1 10.9 3 15.8 1.6 2.5 5.1 3.1 7.3.9 6.9-7 6.9-18.5.1-25.5-1.6-1.6-5-2-6.6 0-5.3 6.8-6.3 15.2-2.3 22.9 1.5 2.8 5.1 2.8 7.3.9 5.5-4.7 5.5-13 .8-18.3-1-1.1-3.1-1.7-4.5-1.2-8.1 3-11.5 14.8-4 20.6 1.6 1.2 3.8 2 5.6.7 5.6-3.8 6.7-11.7 1.7-16.5-4.3-4.1-10.9 2.4-6.6 6.6.5.4.9 1.5.2 2 1.9.2 3.7.5 5.6.7-1.4-1.1-2.3-4.3-.1-5.1l-4.5-1.2c1.5 1.7.8 3.8-.8 5.2 2.4.3 4.9.6 7.3.9-1.9-3.6-1.8-8.4.8-11.7h-6.6c3.4 3.4 3.3 9-.1 12.4 2.4.3 4.9.6 7.3.9-1.7-2.6-2.6-5.5-2-8.6 1-5.7-8-8.3-8.9-2.4z"
                fill="#221e20"></path>
            <path d="M487.3 148.8c-2.9 19-5.7 37.9-9.1 56.5-4-.6-7.8-1.7-11.5-3.5-11.1-5.5-19.1-18.5-15.6-30.3 3.8-12.8 18.4-18.9 31.4-21.9 1.5-.4 3.1-.6 4.8-.8zM474.5 223.4c-3.5 16.6-7.8 32.8-13.2 48.4-.8-.6-1.7-1.2-2.5-1.8-9.6-7.8-14.6-22.3-8.5-33 4.8-8.5 14.3-12.2 24.2-13.6zM22.3 201.8c-5.8 2.9-12.2 4-18.8 4.1C1.2 186.8 0 167.8 0 148.7c2.2.1 4.4.4 6.5.9 13.1 3 27.6 9 31.4 21.9 3.5 11.8-4.5 24.8-15.6 30.3zM30.1 270c-3.8 3-8 5.2-12.5 6.8-1.3-4.6-2.5-9.2-3.6-13.8-3.3-13.5-6-26.9-8.1-40.4 12.7.4 26.6 3.4 32.7 14.3 6 10.8 1.1 25.3-8.5 33.1z"
                fill="#000000"></path>
        </svg>
    </svg>
    <g class="font1 logoname" transform="translate(80, 10.5)" fill="#fabc63">
        <path transform="translate(-2.37890625, 34.69921875)" d="M14.44 1.80L14.44-28.96L14.44-28.96Q14.48-31.50 13.64-32.34L13.64-32.34L13.64-32.34Q12.80-33.18 10.25-33.14L10.25-33.14L2.38-33.14L2.38 1.80L14.44 1.80ZM7.55-14.77L9.43-14.77L9.43-1.31L7.55-1.31L7.55-14.77ZM7.55-17.88L7.55-30.02L8.04-30.02L8.04-30.02Q9.52-30.11 9.43-28.63L9.43-28.63L9.43-17.88L7.55-17.88ZM16.16-30.27L39.29-31.50L39.29-34.70L16.16-33.39L16.16-30.27ZM32.98-2.13L38.80-6.23L38.80-8.12L38.80-8.12Q38.84-10.50 38.08-11.26L38.08-11.26L38.08-11.26Q37.32-12.02 34.95-11.98L34.95-11.98L24.69-11.98L25.76-14.85L39.54-14.85L39.54-17.96L26.74-17.96L27.89-21.16L39.54-21.16L39.54-24.28L38.06-24.28L39.79-29.86L34.21-29.86L32.48-24.28L31.50-24.28L29.86-29.45L24.20-29.45L25.84-24.28L23.95-24.28L22.07-28.88L16.32-28.88L18.13-24.28L15.83-24.28L15.83-21.16L21.90-21.16L20.92-17.96L15.75-17.96L15.75-14.85L19.85-14.85L15.18-3.04L21.16-3.04L21.98-5.25L25.35-2.46L16.00 4.35L23.87 4.35L29.04 0.66L33.39 4.35L40.77 4.35L32.98-2.13ZM33.22-8.45L33.22-8.29L29.20-5.33L27.32-6.89L22.64-6.89L23.46-8.86L32.81-8.86L32.81-8.86Q33.26-8.90 33.22-8.45L33.22-8.45ZM50.45-11.98L43.31-7.63L43.31-4.02L50.45-8.29L50.45 1.15L46.51 1.15L46.51 4.43L56.11 4.43L56.11-20.67L53.81-25.92L56.19-27.48L56.19-31.17L52.58-28.79L50.37-33.96L44.05-33.96L47.74-25.51L43.31-22.56L43.31-18.95L48.97-22.72L50.45-19.28L50.45-11.98ZM58.08-21.98L58.08 4.27L81.95 4.27L81.95-17.39L81.95-17.39Q81.99-20.02 80.99-21.02L80.99-21.02L80.99-21.02Q79.98-22.03 77.36-21.98L77.36-21.98L58.08-21.98ZM61.52-34.70L61.52-31.66L57.26-31.66L57.26-28.55L61.52-28.55L61.52-24.28L67.59-24.28L67.59-28.55L72.35-28.55L72.35-24.28L78.42-24.28L78.42-28.55L82.69-28.55L82.69-31.66L78.42-31.66L78.42-34.70L72.35-34.70L72.35-31.66L67.59-31.66L67.59-34.70L61.52-34.70ZM66.94 1.15L64.15 1.15L64.15-7.38L66.94-7.38L66.94 1.15ZM75.88-7.38L75.88 1.15L73.01 1.15L73.01-7.38L75.88-7.38ZM66.94-10.50L64.15-10.50L64.15-18.87L66.94-18.87L66.94-10.50ZM75.88-17.23L75.88-10.50L73.01-10.50L73.01-18.87L74.24-18.87L74.24-18.87Q76.04-19.03 75.88-17.23L75.88-17.23Z"></path>
    </g>
    <g class="font1 slogan" transform="translate(80, 55.5)" fill="#333333">
        <path transform="translate(-0.890625, 9.9375)" d="M2.81-5.30L2.81-0.19L3.80-0.19L3.80-0.19Q6.23-0.14 6.19-2.77L6.19-2.77L6.19-2.77Q6.19-5.30 3.84-5.30L3.84-5.30L2.81-5.30ZM2.81 3.75L0.89 3.75L0.89-6.52L4.22-6.52L4.22-6.52Q8.20-6.56 8.16-2.77L8.16-2.77L8.16-2.77Q8.16 0.98 4.22 0.98L4.22 0.98L2.81 0.98L2.81 3.75ZM11.53 0.75L9.61 0.75L9.61-9.94L11.53-9.94L11.53-6.56L13.50-6.56L13.50-6.56Q16.55-6.56 16.55-3.89L16.55-3.89L16.55 0.75L14.63 0.75L14.63-3.61L14.63-3.61Q14.63-5.30 12.80-5.30L12.80-5.30L11.53-5.30L11.53 0.75ZM21.80-0.19L21.80-0.19L21.80-0.19Q23.67-0.19 23.67-2.72L23.67-2.72L23.67-2.72Q23.63-5.25 21.80-5.30L21.80-5.30L21.80-5.30Q20.02-5.25 19.97-2.72L19.97-2.72L19.97-2.72Q20.02-0.28 21.80-0.19ZM21.80 0.98L21.80 0.98L21.80 0.98Q18.19 0.80 18-2.72L18-2.72L18-2.72Q18.14-6.42 21.84-6.56L21.84-6.56L21.84-6.56Q25.50-6.42 25.64-2.77L25.64-2.77L25.64-2.77Q25.55 0.84 21.80 0.98ZM27.89-5.16L26.63-5.16L26.63-6.42L27.89-6.42L27.89-9.33L29.81-9.33L29.81-6.42L31.41-6.42L31.41-5.16L29.81-5.16L29.81-1.31L29.81-1.31Q29.77-0.19 30.66-0.28L30.66-0.28L30.66-0.28Q31.08-0.28 31.55-0.61L31.55-0.61L31.55 0.47L31.55 0.47Q30.94 0.98 30 0.98L30 0.98L30 0.98Q27.84 1.03 27.89-1.13L27.89-1.13L27.89-5.16ZM36.19-0.19L36.19-0.19L36.19-0.19Q38.06-0.19 38.06-2.72L38.06-2.72L38.06-2.72Q38.02-5.25 36.19-5.30L36.19-5.30L36.19-5.30Q34.41-5.25 34.36-2.72L34.36-2.72L34.36-2.72Q34.41-0.28 36.19-0.19ZM36.19 0.98L36.19 0.98L36.19 0.98Q32.58 0.80 32.39-2.72L32.39-2.72L32.39-2.72Q32.53-6.42 36.23-6.56L36.23-6.56L36.23-6.56Q39.89-6.42 40.03-2.77L40.03-2.77L40.03-2.77Q39.94 0.84 36.19 0.98ZM41.25-1.08L41.25-1.08L41.25-2.63L41.25-2.63Q42.98-0.14 45.33-0.19L45.33-0.19L45.33-0.19Q47.58-0.23 47.63-1.83L47.63-1.83L47.63-1.83Q47.58-3.23 45.47-3.56L45.47-3.56L45.47-3.56Q41.25-4.17 41.53-6.66L41.53-6.66L41.53-6.66Q41.67-9.33 45.28-9.42L45.28-9.42L45.28-9.42Q48.75-9.38 49.36-6.33L49.36-6.33L47.48-6.33L47.48-6.33Q46.97-8.11 45.33-8.16L45.33-8.16L45.33-8.16Q43.50-8.16 43.50-6.70L43.50-6.70L43.50-6.70Q43.41-5.44 45.56-5.11L45.56-5.11L45.56-5.11Q49.64-4.41 49.64-1.97L49.64-1.97L49.64-1.97Q49.59 0.98 45.61 0.98L45.61 0.98L45.61 0.98Q42.70 0.98 41.25-1.08ZM51.84-5.16L50.58-5.16L50.58-6.42L51.84-6.42L51.84-9.33L53.77-9.33L53.77-6.42L55.36-6.42L55.36-5.16L53.77-5.16L53.77-1.31L53.77-1.31Q53.72-0.19 54.61-0.28L54.61-0.28L54.61-0.28Q55.03-0.28 55.50-0.61L55.50-0.61L55.50 0.47L55.50 0.47Q54.89 0.98 53.95 0.98L53.95 0.98L53.95 0.98Q51.80 1.03 51.84-1.13L51.84-1.13L51.84-5.16ZM60.14-0.19L60.14-0.19L60.14-0.19Q62.02-0.19 62.02-2.72L62.02-2.72L62.02-2.72Q61.97-5.25 60.14-5.30L60.14-5.30L60.14-5.30Q58.36-5.25 58.31-2.72L58.31-2.72L58.31-2.72Q58.36-0.28 60.14-0.19ZM60.14 0.98L60.14 0.98L60.14 0.98Q56.53 0.80 56.34-2.72L56.34-2.72L56.34-2.72Q56.48-6.42 60.19-6.56L60.19-6.56L60.19-6.56Q63.84-6.42 63.98-2.77L63.98-2.77L63.98-2.77Q63.89 0.84 60.14 0.98ZM67.27 0.94L65.34 0.94L65.34-4.03L65.34-4.03Q65.39-6.56 67.92-6.52L67.92-6.52L70.36-6.52L70.36-5.25L68.58-5.25L68.58-5.25Q67.27-5.30 67.27-4.03L67.27-4.03L67.27 0.94ZM71.02 3.42L71.02 3.42L71.02 2.34L71.02 2.34Q71.48 2.63 72.05 2.58L72.05 2.58L72.05 2.58Q72.94 2.58 73.36 1.50L73.36 1.50L73.78 0.61L70.73-6.38L72.84-6.38L74.72-1.36L76.41-6.38L78.47-6.38L75.47 1.08L75.47 1.08Q74.39 4.03 72.47 3.84L72.47 3.84L72.47 3.84Q71.63 3.84 71.02 3.42Z"></path>
    </g>
</svg>
